<?xml version="1.0" encoding="UTF-8"?>
<svg id="Layer_3" data-name="Layer 3" xmlns="http://www.w3.org/2000/svg" viewBox="0 0 962.35 962.35">
  <defs>
    <style>
      .cls-1 {
        fill: #078400;
      }

      .cls-1, .cls-2, .cls-3, .cls-4, .cls-5, .cls-6, .cls-7 {
        stroke-width: 0px;
      }

      .cls-2 {
        fill: #000;
      }

      .cls-3 {
        fill: #158e00;
      }

      .cls-4 {
        fill: #116300;
      }

      .cls-5 {
        fill: #12bc00;
      }

      .cls-6 {
        fill: #fff;
      }

      .cls-7 {
        fill: #d8d8d8;
      }
    </style>
  </defs>
  <g>
    <path class="cls-2" d="M481.18,941.03c-62.08,0-122.31-12.16-178.99-36.13-54.76-23.16-103.94-56.32-146.17-98.55-42.23-42.24-75.39-91.41-98.55-146.17-23.98-56.69-36.13-116.91-36.13-178.99s12.16-122.31,36.13-178.99c23.16-54.76,56.32-103.94,98.55-146.17s91.41-75.39,146.17-98.55c56.69-23.98,116.91-36.13,178.99-36.13s122.31,12.16,178.99,36.13c54.76,23.16,103.94,56.32,146.17,98.55,42.23,42.23,75.39,91.41,98.55,146.17,23.98,56.69,36.13,116.91,36.13,178.99s-12.16,122.31-36.13,178.99c-23.16,54.76-56.32,103.94-98.55,146.17-42.23,42.23-91.41,75.39-146.17,98.55-56.69,23.98-116.91,36.13-178.99,36.13Z"/>
    <path class="cls-2" d="M481.18,29.82c60.94,0,120.05,11.93,175.68,35.46,53.74,22.73,102.02,55.28,143.47,96.74,41.46,41.46,74,89.73,96.74,143.47,23.53,55.63,35.46,114.74,35.46,175.68s-11.93,120.05-35.46,175.68c-22.73,53.74-55.28,102.02-96.74,143.47-41.46,41.46-89.73,74-143.47,96.74-55.63,23.53-114.74,35.46-175.68,35.46s-120.05-11.93-175.68-35.46c-53.74-22.73-102.02-55.28-143.47-96.74-41.46-41.46-74-89.73-96.74-143.47-23.53-55.63-35.46-114.74-35.46-175.68s11.93-120.05,35.46-175.68c22.73-53.74,55.28-102.02,96.74-143.47,41.46-41.46,89.73-74,143.47-96.74,55.63-23.53,114.74-35.46,175.68-35.46M481.18,12.82C222.51,12.82,12.82,222.51,12.82,481.18s209.69,468.35,468.35,468.35,468.35-209.69,468.35-468.35S739.84,12.82,481.18,12.82h0Z"/>
  </g>
  <g>
    <path class="cls-1" d="M244.47,695.27l37.62-6.25c19.1-2.86,16.47-23.9,16.47-23.9l.02.18-54.12-462.47-23.01-15.91,53.68,458.68-.02-.17s2.61,20.86-16.33,23.7l-37.32,6.2,23.01,19.95Z"/>
    <path class="cls-5" d="M298.59,665.29l-54.12-462.47,191.88-19.68,54.12,467.39c16.7,144.2-83.64,157.44-83.64,157.44l-147.6,19.68-14.76-132.38,37.62-6.25c19.1-2.86,16.47-23.9,16.47-23.9l.02.18Z"/>
    <polygon class="cls-4" points="413.85 185.45 411.76 167.4 436.34 183.15 413.85 185.45"/>
    <polygon class="cls-4" points="256.58 803.89 236.09 806.62 259.23 827.65 256.58 803.89"/>
    <polygon class="cls-3" points="256.58 803.89 236.09 806.62 221.46 675.32 244.47 695.27 256.58 803.89"/>
    <polygon class="cls-3" points="413.85 185.45 411.76 167.4 221.46 186.91 244.47 202.82 413.85 185.45"/>
    <path class="cls-1" d="M535.03,662.58l37.62-6.25c19.1-2.86,16.47-23.9,16.47-23.9l.02.18-54.12-462.47-23.01-15.91,53.68,458.68-.02-.17s2.61,20.86-16.33,23.7l-37.32,6.2,23.01,19.95Z"/>
    <path class="cls-5" d="M589.15,632.6l-54.12-462.47,191.88-19.68,54.12,467.39c16.7,144.2-83.64,157.44-83.64,157.44l-147.6,19.68-14.76-132.38,37.62-6.25c19.1-2.86,16.47-23.9,16.47-23.9l.02.18Z"/>
    <polygon class="cls-4" points="704.41 152.76 702.32 134.7 726.9 150.45 704.41 152.76"/>
    <polygon class="cls-4" points="547.14 771.19 526.65 773.92 549.79 794.96 547.14 771.19"/>
    <polygon class="cls-3" points="547.14 771.19 526.65 773.92 512.02 642.63 535.03 662.58 547.14 771.19"/>
    <polygon class="cls-3" points="704.41 152.76 702.32 134.7 512.02 154.22 535.03 170.13 704.41 152.76"/>
    <path class="cls-1" d="M244.47,695.27l37.62-6.25c19.1-2.86,16.47-23.9,16.47-23.9l.02.18-54.12-462.47-23.01-15.91,53.68,458.68-.02-.17s2.61,20.86-16.33,23.7l-37.32,6.2,23.01,19.95Z"/>
    <path class="cls-5" d="M298.59,665.29l-54.12-462.47,191.88-19.68,54.12,467.39c16.7,144.2-83.64,157.44-83.64,157.44l-147.6,19.68-14.76-132.38,37.62-6.25c19.1-2.86,16.47-23.9,16.47-23.9l.02.18Z"/>
    <polygon class="cls-4" points="413.85 185.45 411.76 167.4 436.34 183.15 413.85 185.45"/>
    <polygon class="cls-4" points="256.58 803.89 236.09 806.62 259.23 827.65 256.58 803.89"/>
    <polygon class="cls-3" points="256.58 803.89 236.09 806.62 221.46 675.32 244.47 695.27 256.58 803.89"/>
    <polygon class="cls-3" points="413.85 185.45 411.76 167.4 221.46 186.91 244.47 202.82 413.85 185.45"/>
    <path class="cls-1" d="M535.03,662.58l37.62-6.25c19.1-2.86,16.47-23.9,16.47-23.9l.02.18-54.12-462.47-23.01-15.91,53.68,458.68-.02-.17s2.61,20.86-16.33,23.7l-37.32,6.2,23.01,19.95Z"/>
    <path class="cls-5" d="M589.15,632.6l-54.12-462.47,191.88-19.68,54.12,467.39c16.7,144.2-83.64,157.44-83.64,157.44l-147.6,19.68-14.76-132.38,37.62-6.25c19.1-2.86,16.47-23.9,16.47-23.9l.02.18Z"/>
    <polygon class="cls-4" points="704.41 152.76 702.32 134.7 726.9 150.45 704.41 152.76"/>
    <polygon class="cls-4" points="547.14 771.19 526.65 773.92 549.79 794.96 547.14 771.19"/>
    <polygon class="cls-3" points="547.14 771.19 526.65 773.92 512.02 642.63 535.03 662.58 547.14 771.19"/>
    <polygon class="cls-3" points="704.41 152.76 702.32 134.7 512.02 154.22 535.03 170.13 704.41 152.76"/>
    <path class="cls-7" d="M294.8,633.55l-19.76,17.7c.9-4.6.08-5.66.08-5.66l-4.49-38.33,19.1-17.11.06.06,5.08,43.42"/>
    <polygon class="cls-6" points="294.88 633.64 289.8 590.22 465.28 433.02 470.31 476.47 294.88 633.64"/>
    <polygon class="cls-7" points="542.19 412.07 561.33 394.92 556.26 351.52 537.11 368.67 542.19 412.07"/>
    <polygon class="cls-7" points="542.19 412.07 561.33 394.92 556.26 351.52 537.11 368.67 542.19 412.07"/>
    <polygon class="cls-6" points="561.33 394.92 556.26 351.52 731.96 194.12 736.99 237.55 561.33 394.92"/>
  </g>
  <path class="cls-6" d="M481.18,17c62.67,0,123.46,12.27,180.67,36.47,55.27,23.38,104.91,56.85,147.55,99.48,42.63,42.63,76.11,92.28,99.48,147.55,24.2,57.21,36.47,118,36.47,180.67s-12.27,123.46-36.47,180.67c-23.38,55.27-56.85,104.91-99.48,147.55-42.63,42.63-92.28,76.11-147.55,99.48-57.21,24.2-118,36.47-180.67,36.47s-123.46-12.27-180.67-36.47c-55.27-23.38-104.91-56.85-147.55-99.48-42.63-42.63-76.11-92.28-99.48-147.55-24.2-57.21-36.47-118-36.47-180.67s12.27-123.46,36.47-180.67c23.38-55.27,56.85-104.91,99.48-147.55,42.63-42.63,92.28-76.11,147.55-99.48,57.21-24.2,118-36.47,180.67-36.47M481.18,0C215.43,0,0,215.43,0,481.18s215.43,481.18,481.18,481.18,481.18-215.43,481.18-481.18S746.92,0,481.18,0h0Z"/>
</svg>